<?xml version="1.0" encoding="utf-8"?><!-- Uploaded to: SVG Repo, www.svgrepo.com, Generator: SVG Repo Mixer Tools -->
<svg fill="#000000" width="800px" height="800px" viewBox="0 0 24 24" id="tinder" data-name="Flat Line" xmlns="http://www.w3.org/2000/svg" class="icon flat-line"><path id="secondary" d="M11,3a12.27,12.27,0,0,1,7,11c0,5-3,7-6,7s-8-1-8-7c0-3,3-6,3-6s.45,2.92,2,4C11,10.67,12,8,11,3Z" style="fill: rgb(44, 169, 188); stroke-width: 2;"></path><path id="primary" d="M11,3a12.27,12.27,0,0,1,7,11c0,5-3,7-6,7s-8-1-8-7c0-3,3-6,3-6s.45,2.92,2,4C11,10.67,12,8,11,3Z" style="fill: none; stroke: rgb(0, 0, 0); stroke-linecap: round; stroke-linejoin: round; stroke-width: 2;"></path></svg>